<!DOCTYPE svg PUBLIC "-//W3C//DTD SVG 1.1//EN" "http://www.w3.org/Graphics/SVG/1.1/DTD/svg11.dtd"><!--Uploaded to: SVG Repo, www.svgrepo.com, Transformed by: SVG Repo Mixer Tools--><svg xmlns="http://www.w3.org/2000/svg" xml:space="preserve" viewBox="0 0 512 512"><path fill="#fff" d="m369.464 186.951-31.797-31.797-47.605 47.604 31.846 31.846-64.051 64.05-31.846-31.845-47.585 47.585 31.797 31.797c23.476 23.476 78.159 6.864 122.132-37.109 43.974-43.975 60.586-98.656 37.109-122.131z"/><g fill="#aa6100"><path d="M85.333 124.121H38.788c-12.853 0-23.273 10.42-23.273 23.273s10.42 23.273 23.273 23.273h46.546c12.853 0 23.273-10.42 23.273-23.273-.001-12.853-10.421-23.273-23.274-23.273zM85.333 232.727H38.788c-12.853 0-23.273 10.42-23.273 23.273s10.42 23.273 23.273 23.273h46.546c12.853 0 23.273-10.42 23.273-23.273-.001-12.853-10.421-23.273-23.274-23.273zM85.333 341.333H38.788c-12.853 0-23.273 10.42-23.273 23.273s10.42 23.273 23.273 23.273h46.546c12.853 0 23.273-10.42 23.273-23.273s-10.421-23.273-23.274-23.273z"/></g><path fill="#ecb45c" d="M473.212 0H162.909C107.301 0 62.061 45.241 62.061 100.848v23.273h23.273c12.853 0 23.273 10.42 23.273 23.273s-10.42 23.273-23.273 23.273H62.061v62.061h23.273c12.853 0 23.273 10.42 23.273 23.273s-10.42 23.273-23.273 23.273H62.061v62.061h23.273c12.853 0 23.273 10.42 23.273 23.273s-10.42 23.273-23.273 23.273H62.061v23.273c0 55.605 45.24 100.846 100.848 100.846h310.303c12.853 0 23.273-10.42 23.273-23.273V23.273C496.485 10.42 486.065 0 473.212 0zM332.355 309.08c-16.905 16.905-35.392 29.747-53.082 37.841-28.321 12.96-54.599 13.717-69.05-.732l-31.797-31.797 47.585-47.585 31.846 31.845 21.416-21.412 42.636-42.636-31.846-31.846 47.605-47.604 31.797 31.797c23.476 23.475 6.864 78.156-37.11 122.129z"/><path fill="#feca7d" d="m210.223 346.19-31.797-31.797 47.585-47.585 31.846 31.845 21.416-21.412V0H162.909C107.301 0 62.061 45.241 62.061 100.848v23.273h23.273c12.853 0 23.273 10.42 23.273 23.273s-10.42 23.273-23.273 23.273H62.061v62.061h23.273c12.853 0 23.273 10.42 23.273 23.273s-10.42 23.273-23.273 23.273H62.061v62.061h23.273c12.853 0 23.273 10.42 23.273 23.273s-10.42 23.273-23.273 23.273H62.061v23.273c0 55.605 45.24 100.846 100.848 100.846h116.364V346.922c-28.322 12.96-54.6 13.718-69.05-.732z"/><path fill="#6a563d" d="m369.464 186.951-31.797-31.797-47.605 47.604 31.846 31.846-42.636 42.636-21.416 21.414-31.846-31.845-47.585 47.585 31.797 31.797c14.449 14.449 40.729 13.692 69.05.732 17.69-8.094 36.175-20.936 53.082-37.841 43.975-43.975 60.587-98.656 37.11-122.131z"/></svg>